<svg xmlns="http://www.w3.org/2000/svg" version="1.1" x="0px" y="0px" viewBox="0 0 160 200" style="enable-background:new 0 0 160 160;">
  <path d="M 96.146 65.139 C 97.746 62.969 98.646 60.319 98.646 57.599 C 98.646 50.599 92.956 44.909 85.956 44.909 C 81.906 44.909 78.266 46.809 75.926 49.819 C 73.596 46.809 69.946 44.909 65.906 44.909 C 58.906 44.909 53.216 50.599 53.216 57.599 C 53.216 60.319 54.106 62.969 55.716 65.139 C 53.376 68.159 52.156 71.619 52.156 75.249 C 52.156 85.829 62.826 94.429 75.926 94.429 C 89.036 94.429 99.706 85.829 99.706 75.249 C 99.706 71.619 98.476 68.159 96.146 65.139 Z M 75.926 89.429 C 65.576 89.429 57.156 83.069 57.156 75.249 C 57.156 72.219 58.426 69.319 60.836 66.859 C 61.306 66.379 61.566 65.719 61.546 65.049 C 61.526 64.369 61.236 63.729 60.736 63.269 C 59.106 61.789 58.216 59.779 58.216 57.599 C 58.216 53.359 61.666 49.909 65.906 49.909 C 69.646 49.909 72.836 52.589 73.466 56.289 C 73.676 57.489 74.716 58.369 75.926 58.369 C 77.146 58.369 78.186 57.489 78.396 56.289 C 79.026 52.589 82.206 49.909 85.956 49.909 C 90.196 49.909 93.646 53.359 93.646 57.599 C 93.646 59.779 92.746 61.789 91.126 63.269 C 90.626 63.729 90.336 64.369 90.316 65.049 C 90.296 65.719 90.556 66.379 91.026 66.859 C 93.426 69.319 94.706 72.219 94.706 75.249 C 94.706 83.069 86.286 89.429 75.926 89.429 Z" fill="#8ba888"/>
  <path d="M 145.966 89.369 C 150.656 89.369 154.466 85.549 154.466 80.869 L 154.466 74.809 C 154.466 69.549 152.276 64.439 148.456 60.809 C 144.586 57.119 139.516 55.229 134.166 55.499 C 123.866 56.009 115.806 64.689 115.806 75.269 L 115.806 85.619 C 115.806 93.449 119.126 100.959 124.926 106.229 L 133.916 114.399 C 137.236 117.409 138.356 122.249 136.696 126.429 C 135.186 130.239 131.416 132.889 127.136 133.219 C 127.616 129.219 126.646 125.109 124.226 121.629 C 121.076 117.109 115.906 114.409 110.396 114.409 L 106.426 114.409 L 106.426 93.779 C 111.316 87.289 113.436 79.099 112.256 70.999 L 110.806 60.949 C 110.966 60.959 111.136 60.959 111.296 60.959 C 119.166 60.959 125.566 54.559 125.566 46.689 C 125.566 38.829 119.166 32.429 111.296 32.429 C 108.456 32.429 105.756 33.249 103.466 34.769 C 97.906 27.159 89.046 22.579 79.436 22.579 L 71.946 22.579 C 62.406 22.579 53.576 27.119 47.996 34.649 C 45.746 33.209 43.096 32.429 40.346 32.429 C 32.476 32.429 26.076 38.829 26.076 46.689 C 26.076 54.559 32.476 60.959 40.346 60.959 L 40.586 60.959 L 39.126 70.999 C 37.926 79.239 40.136 87.569 45.206 94.119 L 45.206 114.409 L 41.236 114.409 C 35.726 114.409 30.556 117.109 27.406 121.629 C 23.436 127.339 23.346 134.779 27.196 140.569 L 31.456 146.999 C 32.476 148.519 32.326 150.529 31.096 151.889 C 30.336 152.729 29.256 153.209 28.126 153.209 L 16.106 153.209 C 9.846 153.209 4.766 158.299 4.766 164.549 L 4.766 167.579 C 4.766 169.509 6.326 171.079 8.266 171.079 L 68.596 171.079 C 70.526 171.079 72.096 169.509 72.096 167.579 L 72.096 164.749 L 79.536 164.749 L 79.536 167.579 C 79.536 169.509 81.106 171.079 83.036 171.079 L 143.366 171.079 C 145.306 171.079 146.866 169.509 146.866 167.579 L 146.866 164.549 C 146.866 158.299 141.786 153.209 135.526 153.209 L 123.506 153.209 C 122.376 153.209 121.296 152.729 120.536 151.889 C 120.056 151.359 119.746 150.719 119.606 150.059 C 119.956 150.179 120.326 150.259 120.716 150.259 L 126.626 150.259 C 134.336 150.259 141.776 147.009 147.036 141.339 C 152.366 135.599 154.976 128.119 154.386 120.289 C 153.856 113.179 150.526 106.509 145.006 101.499 L 136.356 93.639 C 134.096 91.589 132.806 88.669 132.806 85.619 L 132.806 74.809 C 132.806 74.139 133.096 73.499 133.596 73.059 C 133.896 72.799 134.526 72.379 135.456 72.499 C 136.586 72.639 137.466 73.739 137.466 75.009 L 137.466 80.869 C 137.466 85.549 141.286 89.369 145.966 89.369 Z M 45.206 153.159 L 43.046 154.779 C 40.786 156.479 39.426 159.189 39.426 162.019 C 39.426 162.729 39.516 163.419 39.676 164.079 L 11.786 164.079 C 12.026 161.909 13.866 160.209 16.106 160.209 L 28.126 160.209 C 31.236 160.209 34.206 158.889 36.286 156.579 C 39.666 152.849 40.076 147.319 37.296 143.119 L 33.026 136.699 C 30.786 133.319 30.826 128.969 33.156 125.629 C 34.996 122.989 38.016 121.409 41.236 121.409 L 45.206 121.409 L 45.206 153.159 L 45.206 153.159 Z M 65.096 164.079 L 48.486 164.079 C 47.356 164.079 46.426 163.159 46.426 162.019 C 46.426 161.379 46.736 160.769 47.256 160.379 L 50.576 157.889 L 61.276 152.299 L 65.096 156.309 L 65.096 164.079 L 65.096 164.079 Z M 86.136 146.579 L 80.506 152.499 C 80.446 152.559 80.406 152.629 80.346 152.699 C 80.266 152.799 80.176 152.899 80.106 153.009 C 80.046 153.099 79.996 153.209 79.946 153.299 C 79.896 153.409 79.836 153.509 79.796 153.619 C 79.746 153.729 79.716 153.839 79.686 153.959 C 79.656 154.059 79.626 154.159 79.606 154.269 C 79.576 154.399 79.576 154.539 79.566 154.669 C 79.556 154.749 79.536 154.829 79.536 154.909 L 79.536 157.749 L 72.096 157.749 L 72.096 154.909 C 72.096 154.829 72.076 154.749 72.076 154.669 C 72.066 154.539 72.056 154.399 72.036 154.269 C 72.016 154.159 71.976 154.059 71.946 153.959 C 71.916 153.839 71.886 153.729 71.846 153.619 C 71.796 153.509 71.736 153.409 71.686 153.299 C 71.636 153.209 71.586 153.099 71.526 153.009 C 71.456 152.899 71.366 152.799 71.286 152.699 C 71.236 152.629 71.186 152.559 71.136 152.499 L 65.496 146.579 L 65.496 119.839 C 65.496 117.909 63.926 116.339 61.996 116.339 C 60.066 116.339 58.496 117.909 58.496 119.839 L 58.496 145.859 L 52.206 149.139 L 52.206 100.689 C 57.226 104.099 63.196 105.979 69.396 105.979 L 81.986 105.979 C 88.166 105.979 94.116 104.119 99.126 100.729 L 99.126 148.979 L 93.136 145.859 L 93.136 119.839 C 93.136 117.909 91.566 116.339 89.636 116.339 C 87.706 116.339 86.136 117.909 86.136 119.839 L 86.136 146.579 L 86.136 146.579 Z M 103.146 164.079 L 86.536 164.079 L 86.536 156.309 L 90.356 152.299 L 100.226 157.449 C 100.576 157.789 101.016 158.049 101.486 158.209 L 104.376 160.379 C 104.896 160.769 105.206 161.379 105.206 162.019 C 105.206 163.159 104.286 164.079 103.146 164.079 Z M 99.826 90.829 C 95.346 96.009 88.846 98.979 81.986 98.979 L 69.396 98.979 C 62.546 98.979 56.046 96.009 51.556 90.829 C 47.076 85.649 45.066 78.789 46.056 72.009 L 48.226 56.999 C 48.416 55.739 47.896 54.469 46.876 53.699 C 46.256 53.239 45.516 52.999 44.766 52.999 C 44.276 52.999 43.786 53.099 43.326 53.309 C 42.376 53.739 41.366 53.959 40.346 53.959 C 36.336 53.959 33.076 50.699 33.076 46.689 C 33.076 42.689 36.336 39.429 40.346 39.429 C 42.556 39.429 44.626 40.429 46.026 42.169 C 46.756 43.089 47.906 43.579 49.076 43.469 C 50.246 43.369 51.286 42.679 51.846 41.639 C 55.826 34.199 63.526 29.579 71.946 29.579 L 79.436 29.579 C 87.936 29.579 95.676 34.269 99.626 41.819 C 100.186 42.879 101.246 43.579 102.436 43.679 C 103.636 43.789 104.796 43.259 105.516 42.309 C 106.906 40.479 109.016 39.429 111.296 39.429 C 115.306 39.429 118.566 42.689 118.566 46.689 C 118.566 50.699 115.306 53.959 111.296 53.959 C 110.206 53.959 109.136 53.709 108.136 53.219 C 106.966 52.649 105.586 52.779 104.536 53.539 C 103.486 54.309 102.956 55.589 103.136 56.869 L 105.336 72.009 C 106.316 78.789 104.306 85.649 99.826 90.829 Z M 118.606 136.699 L 114.346 143.119 C 111.566 147.309 111.976 152.849 115.346 156.579 C 117.426 158.889 120.406 160.209 123.506 160.209 L 135.526 160.209 C 137.766 160.209 139.606 161.909 139.846 164.079 L 111.956 164.079 C 112.116 163.419 112.206 162.729 112.206 162.019 C 112.206 159.189 110.846 156.479 108.586 154.779 L 106.426 153.159 L 106.426 121.409 L 110.396 121.409 C 113.616 121.409 116.646 122.989 118.486 125.629 C 120.806 128.969 120.856 133.319 118.606 136.699 Z M 136.346 65.549 C 133.676 65.209 130.986 66.029 128.976 67.799 C 126.956 69.569 125.806 72.129 125.806 74.809 L 125.806 85.619 C 125.806 90.639 127.936 95.449 131.646 98.819 L 140.296 106.679 C 144.486 110.479 147.006 115.499 147.406 120.809 C 147.846 126.679 145.896 132.279 141.906 136.579 C 137.966 140.819 132.396 143.259 126.626 143.259 L 122.656 143.259 L 124.436 140.569 C 124.506 140.469 124.566 140.359 124.626 140.259 L 126.226 140.259 C 133.716 140.259 140.536 135.739 143.206 129.009 C 145.926 122.129 144.086 114.179 138.626 109.209 L 129.626 101.039 C 125.286 97.099 122.806 91.479 122.806 85.619 L 122.806 75.269 C 122.806 68.429 127.946 62.809 134.506 62.489 C 137.916 62.319 141.156 63.519 143.626 65.879 C 146.106 68.229 147.466 71.399 147.466 74.809 L 147.466 80.869 C 147.466 81.689 146.796 82.369 145.966 82.369 C 145.136 82.369 144.466 81.689 144.466 80.869 L 144.466 75.009 C 144.466 70.209 140.976 66.149 136.346 65.549 Z" fill="#8ba888"/>
  <path d="M 88.606 58.159 C 88.606 59.829 87.246 61.199 85.566 61.199 C 83.886 61.199 82.526 59.829 82.526 58.159 C 82.526 56.479 83.886 55.109 85.566 55.109 C 87.246 55.109 88.606 56.479 88.606 58.159 Z" fill="#8ba888"/>
  <path d="M 69.116 58.159 C 69.116 59.829 67.756 61.199 66.076 61.199 C 64.396 61.199 63.036 59.829 63.036 58.159 C 63.036 56.479 64.396 55.109 66.076 55.109 C 67.756 55.109 69.116 56.479 69.116 58.159 Z" fill="#8ba888"/>
  <path d="M 65.038 76.916 C 65.038 78.297 66.157 79.416 67.538 79.416 C 68.919 79.416 70.038 78.297 70.038 76.916 C 70.038 75.981 70.799 75.221 71.734 75.221 C 72.669 75.221 73.43 75.982 73.43 76.916 L 73.43 81.096 C 73.43 82.477 74.549 83.596 75.93 83.596 C 77.311 83.596 78.43 82.477 78.43 81.096 L 78.43 76.916 C 78.43 75.981 79.191 75.221 80.126 75.221 C 81.061 75.221 81.821 75.982 81.821 76.916 C 81.821 78.297 82.94 79.416 84.321 79.416 C 85.702 79.416 86.821 78.297 86.821 76.916 C 86.821 73.224 83.817 70.221 80.126 70.221 C 78.538 70.221 77.079 70.779 75.93 71.706 C 74.781 70.779 73.322 70.221 71.734 70.221 C 68.042 70.221 65.038 73.224 65.038 76.916 Z" fill="#8ba888"/>
</svg>