<svg xmlns="http://www.w3.org/2000/svg" fill="none" viewBox="0 0 120 150" x="0px" y="0px">
  <path fill="#8ba888" fill-rule="evenodd" d="M 46.828 134.654 L 104.521 134.654 C 109.514 134.654 113.561 130.607 113.561 125.614 C 113.561 118.126 107.49 112.055 100.001 112.055 L 98.098 112.055 C 97.441 112.055 96.909 111.522 96.909 110.865 L 96.909 90.474 C 96.909 88.516 96.716 86.582 96.343 84.698 L 96.316 84.569 C 95.785 81.946 94.902 79.407 93.691 77.02 C 93.273 76.196 93.851 75.183 94.776 75.183 C 97.621 75.183 100.475 75.254 103.321 75.177 C 112.302 74.93 119.508 67.57 119.508 58.53 C 119.508 52.976 116.789 48.058 112.609 45.033 C 112.285 44.803 112.091 44.431 112.087 44.034 L 112.087 42.604 C 112.087 27.422 100.03 15.378 84.831 15.378 L 80.471 15.378 C 66.92 15.378 55.688 26.598 55.688 40.134 C 55.688 43.55 56.467 46.765 57.857 49.612 L 57.882 49.663 C 58.748 51.421 59.853 53.051 61.166 54.504 C 62.089 55.525 60.876 58.956 59.501 59.036 C 57.424 59.155 55.36 59.439 53.328 59.885 L 53.257 59.901 C 36.165 63.671 21.975 78.599 21.975 98.686 C 21.975 104.908 21.975 117.406 21.984 117.38 C 15.112 115.43 10.08 109.11 10.08 101.614 L 10.08 66.856 C 10.08 58.316 17.003 51.394 25.543 51.394 C 25.831 51.394 26.112 51.369 26.385 51.319 C 40.545 50.282 51.71 38.464 51.71 24.037 L 51.71 21.063 C 51.71 17.401 47.746 15.112 44.574 16.943 C 43.102 17.793 42.195 19.364 42.195 21.063 L 42.195 24.037 C 42.195 33.89 34.207 41.878 24.354 41.878 C 24.048 41.878 23.743 41.907 23.444 41.965 C 10.631 43.032 0.565 53.769 0.565 66.856 L 0.565 101.614 C 0.565 115.606 11.658 127.006 25.529 127.501 C 28.895 132.007 34.192 134.659 39.816 134.654 L 46.828 134.654 Z M 85.901 70.362 C 83.811 73.527 83.397 77.76 85.205 81.326 C 86.644 84.161 87.394 87.295 87.393 90.474 L 87.393 110.865 C 87.393 116.778 92.186 121.57 98.098 121.57 L 100.001 121.57 C 102.051 121.57 103.777 123.103 104.018 125.139 L 79.061 125.139 C 78.87 118.497 73.874 113.06 67.428 112.18 C 68.826 109.583 69.556 106.678 69.552 103.729 C 69.552 93.876 61.564 85.887 51.71 85.887 C 48.048 85.887 45.759 89.852 47.59 93.024 C 48.44 94.496 50.011 95.403 51.71 95.403 C 58.12 95.403 62.126 102.341 58.921 107.892 C 57.434 110.468 54.685 112.055 51.71 112.055 L 46.953 112.055 C 43.29 112.055 41.001 116.02 42.832 119.191 C 43.682 120.663 45.253 121.57 46.953 121.57 L 65.588 121.57 C 67.624 121.57 69.329 123.113 69.533 125.139 L 39.816 125.139 C 35.218 125.139 31.49 121.411 31.49 116.813 L 31.49 98.686 C 31.49 81.677 44.897 69.407 60.048 68.536 C 64.233 68.295 66.778 65.725 67.762 64.553 C 68.939 63.148 69.685 61.627 70.144 60.357 C 70.608 59.075 70.983 57.484 71.003 55.742 C 71.008 55.409 70.999 54.969 70.951 54.454 C 72.876 58.366 76.549 61.127 80.842 61.891 C 81.698 65.133 83.451 68.069 85.899 70.361 L 85.901 70.362 Z M 80.257 51.333 L 80.257 45.507 C 79.521 46.257 79.067 47.286 79.067 48.42 C 79.067 49.555 79.521 50.583 80.257 51.334 L 80.257 51.333 Z M 89.772 44.852 L 89.772 57.341 C 89.772 61.939 93.5 65.667 98.098 65.667 L 102.856 65.667 C 106.797 65.667 109.993 62.472 109.993 58.53 C 109.997 56.236 108.894 54.08 107.031 52.74 C 104.234 50.721 102.575 47.483 102.57 44.034 L 102.57 42.604 C 102.57 39.523 101.821 36.647 100.485 34.147 L 100.477 34.147 C 94.565 34.147 89.772 38.94 89.772 44.852 Z M 82.96 34.744 C 75.531 34.888 69.552 40.957 69.552 48.42 C 69.552 49.003 69.588 49.578 69.659 50.141 C 69.263 49.415 68.782 48.738 68.227 48.124 C 66.362 46.059 65.203 43.295 65.203 40.134 C 65.203 31.862 72.165 24.893 80.471 24.893 L 84.831 24.893 C 87.458 24.893 89.934 25.437 92.156 26.418 C 88.297 28.166 85.082 31.078 82.96 34.744 Z" clip-rule="evenodd" style=""/>
</svg>