<svg xmlns="http://www.w3.org/2000/svg" version="1.1" x="0px" y="0px" viewBox="0 0 160 200" style="enable-background:new 0 0 160 160;">
  <path d="M 153.607 66.271 C 144.297 65.331 122.407 63.131 114.837 62.351 C 112.477 54.221 105.377 48.031 96.737 47.071 C 90.647 46.391 84.557 48.331 80.027 52.381 C 75.497 56.431 72.907 62.231 72.907 68.301 L 72.907 71.691 C 72.907 73.531 72.267 75.311 71.127 76.751 L 13.577 59.341 C 10.967 58.551 8.247 59.571 6.797 61.871 C 5.337 64.171 5.597 67.071 7.427 69.081 L 31.087 95.071 C 35.637 100.071 41.227 103.811 47.377 106.111 L 24.437 146.871 C 22.707 149.941 22.737 153.591 24.517 156.631 C 26.297 159.671 29.467 161.481 32.987 161.481 C 35.617 161.481 38.047 160.431 39.847 158.661 C 41.667 160.451 44.107 161.481 46.717 161.481 L 47.167 161.481 C 49.607 161.481 51.867 160.571 53.617 159.051 C 55.387 160.611 57.657 161.481 60.067 161.481 L 62.057 161.481 C 67.467 161.481 71.877 157.091 71.877 151.681 L 71.877 123.571 L 78.607 123.571 C 96.127 123.571 110.387 109.331 110.387 91.821 L 110.387 86.441 C 110.387 84.141 111.117 81.741 112.497 79.511 C 113.347 78.131 114.017 76.681 114.527 75.191 C 121.907 74.421 144.187 72.181 153.607 71.241 C 154.887 71.111 155.857 70.041 155.857 68.751 C 155.857 67.471 154.887 66.391 153.607 66.271 Z M 36.267 90.351 L 34.137 88.021 L 45.387 88.021 C 46.767 88.021 47.887 86.901 47.887 85.521 C 47.887 84.141 46.767 83.021 45.387 83.021 L 29.587 83.021 L 15.107 67.121 L 75.117 85.271 C 76.797 85.781 77.927 87.291 77.927 89.041 C 77.927 95.691 72.717 101.191 66.067 101.571 L 64.017 101.691 C 60.647 101.871 57.337 101.581 54.147 100.841 L 60.077 96.641 C 61.207 95.841 61.477 94.281 60.677 93.151 C 59.877 92.031 58.317 91.761 57.197 92.561 L 48.237 98.891 C 43.747 96.961 39.657 94.081 36.267 90.351 Z M 85.307 115.641 L 85.307 114.351 C 85.307 104.621 93.187 96.711 102.917 96.631 C 101.097 105.791 94.207 113.141 85.307 115.641 Z M 106.547 75.831 C 104.477 79.171 103.387 82.841 103.387 86.441 L 103.387 91.631 L 103.047 91.631 C 90.507 91.631 80.307 101.821 80.307 114.351 L 80.307 116.501 C 79.747 116.541 79.177 116.571 78.607 116.571 L 68.377 116.571 C 66.437 116.571 64.877 118.141 64.877 120.071 L 64.877 151.681 C 64.877 153.231 63.617 154.481 62.057 154.481 L 60.067 154.481 C 58.897 154.481 58.197 153.831 57.877 153.451 C 57.567 153.061 57.077 152.241 57.307 151.111 L 57.427 150.571 L 58.197 146.831 C 58.197 146.821 58.197 146.821 58.197 146.821 L 61.287 131.881 C 61.677 129.991 60.467 128.141 58.577 127.751 C 56.677 127.361 54.827 128.571 54.437 130.461 L 50.927 147.421 L 49.927 152.251 C 49.657 153.541 48.497 154.481 47.167 154.481 L 46.717 154.481 C 45.347 154.481 44.617 153.601 44.367 153.221 C 44.117 152.841 43.597 151.831 44.127 150.581 L 52.047 132.021 C 52.807 130.241 51.977 128.181 50.197 127.431 C 48.427 126.671 46.367 127.491 45.607 129.271 L 35.577 152.781 C 35.137 153.811 34.127 154.481 32.987 154.481 C 31.527 154.481 30.807 153.511 30.557 153.091 C 30.317 152.681 29.827 151.571 30.537 150.311 L 54.327 108.031 C 56.847 108.491 59.407 108.741 62.007 108.741 C 62.807 108.741 63.607 108.721 64.407 108.681 L 66.467 108.561 C 76.817 107.971 84.927 99.401 84.927 89.041 C 84.927 84.511 82.207 80.551 78.067 78.891 C 79.257 76.691 79.907 74.231 79.907 71.691 L 79.907 68.301 C 79.907 64.221 81.647 60.321 84.697 57.601 C 87.787 54.831 91.787 53.561 95.957 54.031 C 102.637 54.771 107.957 60.161 108.607 66.851 C 108.917 70.041 108.207 73.141 106.547 75.831 Z M 115.597 70.051 C 115.667 69.191 115.677 68.331 115.647 67.461 C 118.717 67.781 123.187 68.231 128.367 68.751 C 123.157 69.281 118.667 69.741 115.597 70.051 Z" fill="#8ba888"/>
  <path d="M 100.737 63.561 C 100.737 65.211 99.397 66.551 97.747 66.551 C 96.097 66.551 94.747 65.211 94.747 63.561 C 94.747 61.911 96.097 60.571 97.747 60.571 C 99.397 60.571 100.737 61.911 100.737 63.561 Z" fill="#8ba888"/>
</svg>