<svg xmlns="http://www.w3.org/2000/svg" fill="none" viewBox="0 0 120 150" x="0px" y="0px">
  <path fill="#8ba888" d="M 51.522 58.906 C 55.175 58.906 57.46 54.951 55.632 51.787 C 54.785 50.319 53.218 49.415 51.522 49.415 C 47.87 49.415 45.586 53.369 47.413 56.534 C 48.261 58.002 49.827 58.906 51.522 58.906 Z M 64.573 66.025 C 64.573 69.679 60.619 71.961 57.455 70.135 C 55.987 69.286 55.082 67.72 55.082 66.025 C 55.082 62.372 59.037 60.088 62.201 61.915 C 63.669 62.762 64.573 64.329 64.573 66.025 Z M 79.997 68.398 C 79.997 72.051 76.042 74.335 72.878 72.508 C 71.409 71.66 70.506 70.094 70.506 68.398 C 70.506 64.744 74.46 62.461 77.624 64.289 C 79.092 65.135 79.997 66.703 79.997 68.398 Z" style=""/>
  <path fill="#8ba888" fill-rule="evenodd" d="M 17.117 86.194 C 11.874 86.194 7.625 81.944 7.625 76.703 C 7.621 68.926 13.863 62.585 21.64 62.468 C 21.779 62.466 21.918 62.466 22.059 62.466 L 22.17 62.466 C 23.45 62.466 23.823 60.718 22.653 60.196 L 9.335 54.246 C 2.058 50.995 -1.206 42.46 2.045 35.183 C 4.34 30.045 7.634 28.334 12.628 26.833 C 13.518 26.568 14.334 26.103 15.065 25.529 C 18.682 22.685 23.585 20.941 28.981 20.941 C 29.817 20.941 30.884 21.243 31.694 20.997 L 38.192 19.023 C 43.987 17.263 49.997 21.752 50.022 27.858 C 50.032 29.44 49.577 30.989 48.712 32.312 C 48.052 33.313 48.849 36.99 50.161 37.175 C 53.468 37.644 56.679 38.644 59.666 40.141 L 73.966 47.288 C 83.628 52.121 91.353 60.105 95.865 69.922 L 99.365 77.542 L 106.785 90.765 C 107.371 91.801 108.858 91.815 109.463 90.789 C 109.757 90.289 109.747 89.668 109.438 89.179 L 108.026 86.962 C 106.064 83.88 108.175 79.829 111.826 79.672 C 113.519 79.599 115.124 80.436 116.034 81.865 L 117.445 84.084 C 120.247 88.489 119.581 94.254 115.848 97.902 C 114.176 99.549 112.018 100.613 109.694 100.94 C 109.741 101.096 109.785 101.253 109.827 101.411 L 117.702 129.842 C 118.727 133.547 115.941 137.21 112.096 137.21 C 106.236 137.21 100.796 134.271 97.577 129.436 C 88.721 132.657 78.903 126.323 78.6 116.512 L 78.108 100.605 C 74.267 98.522 69.532 97.342 64.8 96.161 C 60.304 95.04 55.807 93.918 52.076 92.023 L 45.404 99.944 C 44.537 100.974 43.16 101.424 41.849 101.105 C 34.684 99.357 30.553 92.76 31.054 86.194 L 17.117 86.194 Z M 89.861 80.002 C 86.414 81.21 82.95 78.236 83.625 74.645 C 83.886 73.263 84.747 72.067 85.974 71.381 C 82.512 65.112 77.349 59.952 71.08 56.493 C 69.296 59.682 64.731 59.744 62.861 56.607 C 62.067 55.273 61.974 53.638 62.613 52.224 L 55.422 48.63 C 53.352 47.593 51.126 46.898 48.832 46.573 C 42.16 45.63 37.918 37.486 39.219 30.93 C 39.419 29.916 38.468 28.859 37.479 29.159 L 34.451 30.079 C 32.61 30.637 30.853 30.432 28.981 30.432 C 25.235 30.432 22.218 31.776 20.394 33.446 C 18.775 34.924 16.743 35.875 14.57 36.169 C 10.8 36.669 8.984 41.063 11.301 44.078 C 11.802 44.729 12.457 45.245 13.207 45.579 L 26.526 51.53 C 37.045 56.228 33.691 71.957 22.17 71.957 C 19.478 71.957 17.117 73.877 17.117 76.703 L 44.678 76.703 C 48.441 76.703 51.629 78.648 53.49 81.327 C 54.043 82.123 55.139 83.083 57.569 84.113 C 61.101 85.61 64.815 86.521 68.531 87.435 C 72.492 88.409 76.456 89.383 80.206 91.065 C 84.747 93.101 89.63 96.337 92.812 101.933 C 94.606 105.092 99.729 113.753 103.32 119.829 L 105.72 123.89 C 106.424 125.083 108.239 124.306 107.868 122.973 L 100.682 103.943 C 100.308 102.597 99.828 101.282 99.246 100.012 L 96.172 93.325 C 93.423 95.73 89.101 94.257 88.392 90.674 C 87.866 88.007 89.682 85.444 92.372 85.056 L 90.901 81.852 L 89.861 80 L 89.861 80.002 Z M 40.644 86.194 C 40.326 87.511 40.587 88.901 41.36 90.013 L 44.575 86.194 L 40.644 86.194 Z M 87.976 112.632 L 88.086 116.218 C 88.157 118.48 89.751 120.183 91.704 120.65 L 91.66 119.114 L 87.976 112.632 Z" clip-rule="evenodd" style=""/>
</svg>