<svg xmlns="http://www.w3.org/2000/svg" version="1.1" x="0px" y="0px" viewBox="0 0 160 200" style="enable-background:new 0 0 160 160;">
  <path d="M 139.964 90.878 C 141.557 90.878 142.853 92.174 142.853 93.767 C 142.853 95.36 141.557 96.656 139.964 96.656 C 138.371 96.656 137.075 95.36 137.075 93.767 C 137.076 92.174 138.371 90.878 139.964 90.878 Z" fill="#8ba888"/>
  <path d="M 9.992 117.265 L 14.288 117.265 L 7.159 127.09 C 6.387 128.155 6.276 129.564 6.874 130.736 C 7.472 131.908 8.677 132.646 9.992 132.646 L 21.151 132.646 L 23.591 132.646 L 23.591 147.348 C 23.591 149.281 25.158 150.848 27.091 150.848 L 38.209 150.848 L 38.209 153.412 C 38.209 155.345 39.776 156.912 41.709 156.912 L 59.873 156.912 C 60.805 156.912 61.698 156.541 62.355 155.88 C 63.011 155.219 63.377 154.323 63.373 153.392 L 63.324 144.908 C 63.323 144.815 63.319 144.722 63.311 144.63 C 63.309 144.611 63.303 144.543 63.301 144.525 C 62.89 140.53 61.799 136.556 60.05 132.647 L 73.848 132.647 L 73.848 147.349 C 73.848 149.282 75.415 150.849 77.348 150.849 L 88.466 150.849 L 88.466 153.413 C 88.466 155.346 90.033 156.913 91.966 156.913 L 110.131 156.913 C 111.063 156.913 111.956 156.542 112.613 155.881 C 113.27 155.22 113.636 154.324 113.631 153.393 L 113.582 144.909 C 113.582 144.8 113.576 144.69 113.564 144.581 L 113.549 144.431 C 113.129 140.343 111.96 136.203 110.071 132.126 C 117.736 130.589 123.913 125.637 128.85 117.113 C 130.488 114.286 133.537 112.529 136.807 112.529 L 140.545 112.529 C 149.476 112.529 156.742 105.263 156.742 96.333 C 156.742 87.402 149.476 80.136 140.545 80.136 L 128.794 80.136 C 123.439 80.136 118.438 82.777 115.418 87.199 L 113.545 89.942 C 109.089 70.058 91.307 55.151 70.099 55.151 L 62.184 55.151 C 38.785 55.151 19.557 73.295 17.796 96.251 C 11.455 96.901 6.491 102.274 6.491 108.784 L 6.491 113.767 C 6.492 115.698 8.059 117.265 9.992 117.265 Z M 43.314 67.256 L 49.466 75.569 L 39.363 89.94 C 39.067 90.361 38.908 90.863 38.908 91.378 L 38.908 96.183 L 24.813 96.183 C 25.96 83.837 33.115 73.214 43.314 67.256 Z M 88.375 92.168 L 88.375 96.182 L 43.908 96.182 L 43.908 92.168 L 53.846 78.03 L 66.142 78.03 L 78.437 78.03 L 88.375 92.168 Z M 70.099 62.149 C 75.169 62.149 80.003 63.167 84.419 64.997 L 78.475 73.03 L 66.141 73.03 L 53.807 73.03 L 47.863 64.997 C 52.279 63.167 57.114 62.149 62.184 62.149 L 70.099 62.149 Z M 107.471 96.183 L 93.375 96.183 L 93.375 91.378 C 93.375 90.863 93.216 90.361 92.92 89.94 L 82.817 75.568 L 88.969 67.255 C 99.168 73.213 106.324 83.837 107.471 96.183 Z M 80.849 132.646 L 88.467 132.646 L 88.467 143.848 L 80.849 143.848 L 80.849 132.646 Z M 30.592 132.646 L 36.094 132.646 L 38.21 132.646 L 38.21 143.848 L 30.592 143.848 L 30.592 132.646 Z M 22.936 117.265 L 98.703 117.265 C 107.486 117.265 114.632 110.119 114.632 101.336 L 114.632 100.763 L 121.199 91.144 C 122.914 88.633 125.753 87.133 128.794 87.133 L 140.545 87.133 C 145.616 87.133 149.742 91.258 149.742 96.33 C 149.742 101.401 145.617 105.526 140.545 105.526 L 136.807 105.526 C 131.049 105.526 125.679 108.621 122.793 113.602 C 117.969 121.931 112.369 125.645 104.635 125.645 C 103.413 125.645 102.279 126.283 101.644 127.327 C 101.009 128.372 100.965 129.672 101.527 130.757 L 102.966 133.532 C 104.963 137.384 106.179 141.28 106.583 145.116 L 106.611 149.912 L 95.468 149.912 L 95.468 129.145 C 95.468 127.212 93.901 125.645 91.968 125.645 L 54.378 125.645 C 53.156 125.645 52.023 126.283 51.388 127.327 C 50.752 128.372 50.708 129.672 51.271 130.757 L 52.71 133.533 C 54.704 137.381 55.921 141.276 56.326 145.111 L 56.353 149.912 L 45.21 149.912 L 45.21 129.145 C 45.21 127.212 43.643 125.645 41.71 125.645 L 36.094 125.645 L 21.151 125.645 L 16.855 125.645 L 22.936 117.265 Z M 13.492 108.782 C 13.492 105.695 16.004 103.183 19.092 103.183 L 21.152 103.183 L 107.441 103.183 C 106.588 107.224 102.995 110.266 98.704 110.266 L 13.492 110.266 L 13.492 108.782 Z" fill="#8ba888"/>
</svg>