<svg xmlns="http://www.w3.org/2000/svg" fill="none" viewBox="0 0 120 150" x="0px" y="0px">
  <path fill="#8ba888" fill-rule="evenodd" d="M 82.648 43.009 C 80.115 40.625 77.242 38.631 74.123 37.091 C 66.924 33.552 57.149 31.884 44.458 35.435 C 28.533 39.891 16.556 49.542 10.558 60.955 C 4.687 72.129 4.584 85.1 12.478 95.626 L 2.802 106.418 C -2.422 112.601 1.973 122.072 10.069 122.072 L 14.762 122.072 C 17.481 122.072 20.613 120.887 22.534 118.961 C 24.928 116.563 27.371 114.401 29.675 112.362 C 29.976 112.101 30.41 112.062 30.752 112.266 C 34.4 114.41 38.554 115.537 42.785 115.53 L 54.675 115.53 C 63.629 115.53 72.006 113.056 79.157 108.752 C 79.623 108.471 80.218 108.532 80.617 108.902 C 81.887 110.072 83.171 111.225 84.468 112.362 C 86.773 114.401 89.216 116.563 91.611 118.961 C 93.532 120.886 96.102 122.072 98.822 122.072 L 103.516 122.072 C 111.61 122.072 116.006 112.601 110.781 106.418 L 97.378 90.554 C 97.069 90.183 97.01 89.663 97.228 89.233 C 100.532 82.63 102.247 75.346 102.236 67.962 C 102.236 67.956 102.24 67.951 102.247 67.951 C 111.487 67.632 119.459 60.04 119.459 50.719 C 119.459 41.195 111.163 33.474 101.641 33.474 L 98.074 33.474 C 91.324 33.474 85.479 37.354 82.649 43.009 L 82.648 43.009 Z M 88.448 52.57 C 87.692 58.53 85.414 75.312 70.139 87.71 C 62.156 94.19 51.254 97.024 41.578 98.24 C 34.301 99.152 27.334 99.194 22.089 98.988 L 10.068 112.557 L 14.265 112.557 C 16.583 112.13 21.548 106.852 23.373 105.237 C 26.874 102.143 31.817 101.855 35.573 104.064 C 37.758 105.349 40.249 106.024 42.785 106.017 L 54.675 106.017 C 61.573 106.03 68.344 104.157 74.254 100.6 C 78.353 98.131 83.593 98.676 87.097 101.934 C 89.592 104.258 97.228 112.266 98.83 112.557 L 103.516 112.557 L 90.113 96.693 C 87.347 93.416 86.799 88.807 88.721 84.973 C 91.363 79.692 92.735 73.866 92.725 67.962 C 92.725 62.765 96.857 58.619 101.919 58.444 C 106.056 58.302 109.948 54.895 109.948 50.719 C 109.948 46.45 105.911 42.989 101.642 42.989 L 98.076 42.989 C 95.065 42.987 92.329 44.733 91.06 47.464 C 90.435 48.802 89.542 50 88.436 50.982 C 88.511 51.509 88.515 52.043 88.448 52.57 Z M 48.144 44.296 L 46.305 51.958 C 41.084 55.437 35.487 58.411 30.357 62.015 L 21.018 62.015 C 27.309 52.896 37.559 46.998 48.145 44.297 L 48.144 44.296 Z M 49.415 61.318 L 73.453 69.333 C 71.068 73.549 67.91 77.277 64.144 80.323 C 58.221 85.129 49.445 87.663 40.393 88.8 C 38.521 89.033 36.64 89.212 34.756 89.335 L 37.056 69.56 L 49.415 61.318 Z M 27.249 71.53 L 16.587 71.53 C 14.987 77.799 15.947 84.032 19.67 89.342 C 21.255 89.442 23.107 89.523 25.152 89.558 L 27.25 71.53 L 27.249 71.53 Z M 55.742 53.4 L 58.242 42.977 C 63.097 43.022 66.934 44.158 69.927 45.629 C 74.224 47.743 77.091 50.698 78.816 52.833 C 78.528 54.87 78.062 57.544 77.168 60.543 L 55.741 53.399 L 55.742 53.4 Z" clip-rule="evenodd" style=""/>
</svg>