<svg xmlns="http://www.w3.org/2000/svg" viewBox="-1.6 -3.2 35.2 43.2" x="0px" y="0px">
  <path d="M 11.644 7.799 C 11.644 8.639 10.963 9.32 10.123 9.32 C 9.283 9.32 8.602 8.639 8.602 7.799 C 8.602 6.959 9.283 6.278 10.123 6.278 C 10.963 6.278 11.644 6.959 11.644 7.799 Z M 28.833 23.929 C 29.612 22.894 30.267 21.769 30.788 20.579 C 31.713 18.463 32.181 16.212 32.181 13.886 C 32.181 4.659 24.674 -2.848 15.447 -2.848 L 9.362 -2.848 C 8.521 -2.848 7.841 -2.168 7.841 -1.327 L 7.841 1.909 C 5.219 2.584 3.277 4.971 3.277 7.801 C 3.277 8.071 3.299 8.345 3.343 8.627 L 1.641 10.329 C 0.705 11.265 0.22 12.559 0.314 13.88 C 0.408 15.2 1.07 16.412 2.129 17.208 L 4.351 18.874 C 5.55 19.779 7.263 19.659 8.328 18.592 L 10.508 16.46 C 10.607 16.718 10.692 16.981 10.765 17.252 C 11.203 18.845 10.675 20.593 9.422 21.708 C 8.252 22.75 7.275 23.961 6.515 25.312 C 5.445 27.216 4.989 29.092 4.815 30.621 L 3.277 30.621 C 1.6 30.621 0.235 31.985 0.235 33.663 L 0.235 36.706 C 0.235 38.384 1.6 39.748 3.277 39.748 L 27.617 39.748 C 29.295 39.748 30.66 38.384 30.66 36.706 L 30.66 33.663 C 30.66 31.985 29.295 30.621 27.617 30.621 L 26.447 30.621 L 24.873 26.944 C 24.535 26.157 24.342 25.348 24.216 24.537 L 27.619 24.537 C 28.097 24.537 28.547 24.314 28.834 23.932 L 28.833 23.929 Z M 27.62 36.703 L 3.277 36.703 L 3.277 33.66 L 27.617 33.66 L 27.62 36.703 Z M 7.897 30.618 C 8.06 29.48 8.406 28.155 9.168 26.799 C 9.761 25.744 10.528 24.794 11.444 23.978 C 13.555 22.103 14.44 19.145 13.7 16.447 C 13.601 16.082 13.482 15.72 13.35 15.372 C 12.977 14.391 12.143 13.677 11.121 13.458 C 10.109 13.238 9.067 13.549 8.336 14.281 L 6.177 16.44 L 3.954 14.773 C 3.595 14.503 3.381 14.109 3.349 13.664 C 3.317 13.216 3.475 12.796 3.792 12.48 L 6.089 10.183 C 6.486 9.786 6.632 9.202 6.469 8.666 C 6.369 8.332 6.32 8.058 6.32 7.801 C 6.32 6.123 7.685 4.758 9.362 4.758 C 10.204 4.758 10.884 4.078 10.884 3.237 L 10.884 0.194 C 12.562 0.194 13.926 1.559 13.926 3.237 C 13.926 3.864 14.311 4.425 14.895 4.655 C 16.048 5.105 19.944 6.921 21.631 11.382 C 22.815 14.512 22.296 17.416 21.65 19.301 C 20.687 22.116 20.839 25.255 22.077 28.143 L 23.139 30.621 L 7.897 30.621 L 7.897 30.618 Z M 24.243 21.492 C 24.319 21.084 24.394 20.676 24.528 20.284 C 25.334 17.926 25.982 14.281 24.477 10.303 C 22.67 5.526 18.878 3.158 16.882 2.203 C 16.76 1.495 16.515 0.83 16.172 0.229 C 23.384 0.608 29.14 6.578 29.14 13.884 C 29.14 15.789 28.757 17.631 28.002 19.361 C 27.677 20.104 27.284 20.819 26.834 21.492 L 24.243 21.492 Z" style="" fill="#8ba888"/>
</svg>