<svg xmlns="http://www.w3.org/2000/svg" fill="none" viewBox="0 0 120 150" x="0px" y="0px">
  <path fill="#8ba888" d="M 27.958 80.745 C 31.63 80.745 33.924 76.77 32.089 73.59 C 31.237 72.115 29.662 71.206 27.958 71.206 C 24.286 71.206 21.991 75.18 23.827 78.36 C 24.679 79.836 26.254 80.745 27.958 80.745 Z" style=""/>
  <path fill="#8ba888" fill-rule="evenodd" d="M 45.168 35.009 C 35.569 39.62 30.601 49.9 32.233 59.833 C 23.409 57.814 12.782 62.595 10.353 72.757 C 10.174 73.507 9.687 74.157 8.985 74.476 C 3.003 77.196 -0.383 83.618 0.752 90.09 C 1.32 93.329 5.787 94.073 8.774 92.698 C 10.374 91.961 12.029 91.805 13.877 92.009 C 14.43 92.071 14.924 92.362 15.318 92.754 C 19.992 97.412 27.189 97.18 31.71 95.957 C 32.297 95.798 32.916 96.07 33.195 96.61 C 33.633 97.471 34.1 98.291 34.594 99.067 C 32.741 101.523 29.024 103.481 23.602 103.509 C 20.49 99.304 15.586 96.367 9.586 95.871 C 5.927 95.568 3.311 99.34 4.879 102.661 C 5.606 104.202 7.101 105.238 8.799 105.378 C 14.601 105.859 18.144 110.502 17.724 115.573 C 17.421 119.232 21.193 121.847 24.514 120.28 C 26.055 119.552 27.091 118.058 27.232 116.36 C 27.331 115.16 27.317 113.975 27.199 112.813 C 32.751 112.122 37.732 109.884 41.163 106.093 C 44.348 108.38 47.979 109.801 51.839 110.465 C 50.026 111.603 47.663 112.633 44.667 113.487 C 41.021 112.159 36.867 111.93 32.62 113.135 C 29.088 114.138 27.966 118.589 30.601 121.146 C 31.823 122.333 33.586 122.778 35.226 122.312 C 40.827 120.722 45.775 123.823 47.166 128.717 C 48.129 132.26 52.566 133.432 55.153 130.827 C 56.381 129.59 56.837 127.781 56.341 126.11 C 55.758 124.046 54.831 122.095 53.599 120.339 C 56.631 118.922 59.288 117.142 61.406 114.918 C 62.763 113.506 63.886 111.888 64.735 110.123 C 66.847 109.69 68.924 109.102 70.95 108.367 C 71.287 108.244 71.66 108.277 71.971 108.455 L 96.599 122.774 C 96.927 122.964 97.325 122.988 97.673 122.838 L 118.361 113.89 C 118.846 113.681 119.136 113.177 119.072 112.652 L 116.892 94.666 C 116.834 94.18 116.484 93.78 116.011 93.656 L 84.086 85.255 C 83.403 85.075 83.025 84.343 83.274 83.682 L 86.181 75.928 C 86.309 75.582 86.592 75.317 86.944 75.21 C 87.986 74.895 89.126 74.566 90.331 74.22 C 98.207 71.948 108.793 68.897 112.025 64.051 C 114.843 59.825 117.4 44.828 118.545 33.028 C 118.77 30.708 118.941 28.509 119.048 26.542 C 119.095 25.698 119.128 24.896 119.151 24.146 C 119.176 23.283 118.293 22.71 117.504 23.061 C 114.838 24.241 112.167 25.41 109.492 26.57 C 103 29.384 95.927 32.389 89.155 35.239 C 88.697 30.206 87.333 24.722 84.956 18.68 C 84.452 17.414 82.981 16.842 81.754 17.434 L 45.169 35.009 L 45.168 35.009 Z M 78.505 29.577 L 49.299 43.608 C 42.213 47.011 39.397 55.636 43.105 62.566 L 43.108 62.57 C 43.931 62.353 44.594 62.054 44.833 61.704 C 48.368 56.544 54.723 49.577 58.62 47.953 C 59.404 47.626 60.722 47.081 62.468 46.359 C 66.451 44.711 72.655 42.145 79.79 39.166 C 79.804 36.318 79.413 33.15 78.504 29.579 L 78.505 29.577 Z M 61.364 96.259 C 63.67 96.106 65.754 97.628 66.31 99.871 C 66.774 99.724 67.24 99.565 67.709 99.396 C 70.7 98.314 74.016 98.612 76.766 100.209 L 97.753 112.411 L 108.852 107.611 L 108.104 101.44 L 81.658 94.481 C 75.511 92.864 72.109 86.286 74.341 80.334 L 77.25 72.579 C 78.422 69.448 80.989 67.043 84.19 66.077 C 85.287 65.747 86.474 65.404 87.653 65.064 L 87.69 65.054 C 91.727 63.89 95.832 62.697 99.304 61.275 C 101.019 60.573 102.326 59.916 103.243 59.328 C 104.765 58.356 104.949 56.391 105.384 54.724 C 106.095 52.005 106.786 48.567 107.403 44.803 C 107.802 42.36 108.158 39.854 108.463 37.405 C 92.476 44.27 74.457 51.723 66.155 55.159 L 66.116 55.174 C 63.027 56.451 60.765 57.751 58.431 60.153 C 56.275 62.371 54.15 64.983 52.703 67.096 C 50.477 70.348 46.693 71.809 42.925 72.305 C 39.368 72.774 35.551 72.455 32.587 70.242 C 30.902 68.984 28.025 68.436 25.032 69.426 C 22.205 70.361 20.262 72.332 19.631 74.976 C 18.95 77.826 17.163 80.671 14.246 82.465 C 17.201 82.705 19.939 83.894 22.05 85.997 C 22.519 86.464 23.32 86.915 24.764 87.097 C 26.262 87.286 27.926 87.1 29.218 86.749 C 34.095 85.429 39.347 87.661 41.699 92.289 C 44.156 97.123 47.725 99.635 51.872 100.723 C 53.426 101.131 55.122 101.349 56.922 101.37 L 56.92 101.334 C 56.745 98.705 58.735 96.433 61.364 96.259 Z" clip-rule="evenodd" style=""/>
</svg>