<svg xmlns="http://www.w3.org/2000/svg" version="1.1" x="0px" y="0px" viewBox="0 0 160 200" style="enable-background:new 0 0 160 160;">
  <path d="M 147.151 115.6 L 141.621 83.8 C 141.411 82.63 140.621 81.63 139.521 81.17 C 138.421 80.71 137.161 80.84 136.181 81.52 L 126.861 87.97 C 117.011 94.78 110.141 105.3 107.801 117.02 L 105.381 118.31 C 105.391 117.95 105.411 117.59 105.411 117.23 C 105.411 111.19 103.961 105.15 101.231 99.77 L 97.531 92.48 L 115.911 89.04 C 117.121 88.81 118.111 87.98 118.541 86.83 C 118.981 85.69 118.781 84.4 118.021 83.44 L 111.471 75.1 C 108.951 71.9 107.061 68.25 105.851 64.38 L 107.681 63.06 C 113.711 58.7 117.311 51.66 117.311 44.21 L 117.311 29.27 C 117.311 28.25 116.871 27.29 116.101 26.62 C 115.321 25.96 114.301 25.66 113.291 25.81 L 107.591 26.66 C 100.371 27.74 93.481 30.66 87.681 35.09 L 86.301 36.14 C 83.481 35.04 80.491 34.36 77.411 34.17 L 72.631 33.87 C 72.531 33.86 72.441 33.88 72.341 33.88 C 72.241 33.88 72.151 33.86 72.051 33.87 L 67.261 34.17 C 64.201 34.36 61.231 35.03 58.421 36.12 L 57.081 35.09 C 51.271 30.66 44.391 27.74 37.161 26.67 L 31.461 25.81 C 30.451 25.66 29.431 25.96 28.661 26.62 C 27.891 27.29 27.451 28.26 27.451 29.28 L 27.451 44.22 C 27.451 51.66 31.051 58.7 37.081 63.06 L 38.841 64.33 C 37.631 68.22 35.741 71.88 33.211 75.1 L 26.651 83.44 C 25.901 84.4 25.701 85.69 26.131 86.83 C 26.561 87.98 27.561 88.81 28.761 89.04 L 46.801 92.42 L 43.061 99.77 C 40.331 105.15 38.891 111.19 38.891 117.23 C 38.891 117.59 38.901 117.95 38.911 118.31 L 35.001 116.23 C 28.561 112.79 20.731 114.25 15.951 119.77 C 10.791 125.73 10.921 134.61 16.251 140.43 L 28.811 154.13 C 27.251 154.59 25.771 155.33 24.451 156.38 C 21.321 158.85 19.531 162.56 19.531 166.55 L 19.531 171.68 C 19.531 173.61 21.091 175.18 23.031 175.18 L 121.611 175.18 C 123.541 175.18 125.111 173.61 125.111 171.68 L 125.111 166.55 C 125.111 166.24 125.081 165.93 125.061 165.62 L 134.511 156.04 C 144.981 145.41 149.711 130.3 147.151 115.6 Z M 105.961 79.43 L 107.631 81.54 L 89.541 77.97 C 88.171 77.7 86.761 77.56 85.371 77.56 L 82.651 77.56 C 82.121 76.69 81.341 76.07 80.431 75.78 C 80.491 75.19 80.691 73.27 81.351 67.42 C 81.861 62.87 85.711 59.43 90.301 59.43 C 91.691 59.43 93.081 59.76 94.321 60.38 L 98.101 62.26 C 99.331 68.51 102.021 74.41 105.961 79.43 Z M 108.631 33.59 L 110.311 33.33 L 110.311 44.21 C 110.311 49.15 108.051 53.82 104.221 56.89 C 103.001 51.61 100.381 46.82 96.551 42.91 C 95.451 41.8 94.271 40.78 93.031 39.87 C 97.661 36.6 103.021 34.42 108.631 33.59 Z M 67.701 41.16 L 72.341 40.86 L 76.971 41.16 C 82.501 41.5 87.681 43.87 91.551 47.82 C 93.851 50.16 95.561 52.92 96.651 55.95 L 96.551 55.91 C 94.621 54.94 92.461 54.43 90.301 54.43 C 83.161 54.43 77.181 59.78 76.381 66.86 C 75.641 73.46 75.471 75.09 75.431 75.6 L 69.211 75.6 C 69.171 75.09 68.991 73.45 68.251 66.86 C 67.461 59.78 61.471 54.43 54.341 54.43 C 52.181 54.43 50.021 54.94 48.081 55.91 L 48.041 55.93 C 49.121 52.91 50.831 50.15 53.121 47.82 C 57.001 43.87 62.181 41.5 67.701 41.16 Z M 77.421 80.93 C 75.851 82.72 73.281 84.55 72.321 84.56 C 71.361 84.55 68.821 82.74 67.251 80.96 C 67.291 80.84 67.331 80.72 67.361 80.6 L 77.321 80.6 C 77.341 80.71 77.381 80.82 77.421 80.93 Z M 34.451 44.22 L 34.451 33.34 L 36.131 33.59 C 41.721 34.42 47.061 36.58 51.681 39.84 C 50.431 40.76 49.231 41.78 48.121 42.91 C 44.301 46.81 41.691 51.58 40.471 56.84 C 36.681 53.77 34.451 49.12 34.451 44.22 Z M 38.711 79.43 C 42.301 74.86 44.841 69.56 46.201 63.94 C 46.241 63.81 46.281 63.68 46.301 63.54 C 46.401 63.11 46.501 62.68 46.581 62.24 L 50.321 60.38 C 51.561 59.76 52.951 59.43 54.341 59.43 C 58.931 59.43 62.771 62.87 63.281 67.42 C 63.961 73.39 64.151 75.22 64.211 75.78 C 63.291 76.07 62.491 76.7 61.971 77.6 C 61.971 77.6 61.971 77.6 61.961 77.61 C 58.251 77.7 54.531 78.09 50.891 78.81 L 37.051 81.54 L 38.711 79.43 Z M 45.291 85.01 L 51.861 83.72 C 55.271 83.04 58.751 82.68 62.221 82.6 C 64.001 85.29 68.691 89.56 72.321 89.56 C 75.971 89.56 80.681 85.26 82.441 82.56 L 85.371 82.56 C 86.441 82.56 87.521 82.67 88.571 82.88 L 99.381 85.01 L 87.161 87.3 C 84.371 87.82 81.791 89.11 79.701 91.03 C 78.181 92.42 76.221 93.18 74.171 93.18 L 72.351 93.18 L 72.341 93.19 C 72.331 93.19 72.331 93.18 72.321 93.18 L 70.501 93.18 C 68.451 93.18 66.491 92.42 64.981 91.03 C 62.881 89.11 60.301 87.82 57.511 87.3 L 45.291 85.01 Z M 40.841 166.55 L 40.841 168.18 L 26.531 168.18 L 26.531 166.55 C 26.531 164.71 27.351 163.01 28.791 161.87 C 30.231 160.73 32.091 160.32 33.871 160.74 L 41.481 162.55 C 41.061 163.82 40.841 165.17 40.841 166.55 Z M 45.711 156.42 C 45.331 156.29 44.941 156.18 44.541 156.08 L 38.871 154.74 L 21.411 135.7 C 18.481 132.5 18.411 127.62 21.251 124.35 C 23.871 121.32 28.171 120.52 31.711 122.4 L 40.121 126.89 C 40.561 128.57 41.101 130.22 41.761 131.85 L 50.811 153.93 C 49.001 154.36 47.281 155.18 45.761 156.38 C 45.741 156.39 45.731 156.41 45.711 156.42 Z M 47.841 168.18 L 47.841 166.55 C 47.841 164.71 48.661 163.01 50.101 161.87 C 51.541 160.73 53.401 160.32 55.181 160.74 L 64.231 162.9 C 66.761 163.5 68.581 165.63 68.801 168.18 L 47.841 168.18 Z M 68.821 157.19 C 67.891 156.71 66.901 156.33 65.851 156.08 L 58.551 154.35 L 48.241 129.19 C 46.681 125.38 45.891 121.35 45.891 117.23 C 45.891 112.28 47.071 107.34 49.311 102.94 L 53.931 93.83 C 53.941 93.81 53.941 93.78 53.961 93.76 L 56.221 94.18 C 57.221 94.37 58.161 94.75 59.011 95.28 L 54.581 104.44 C 50.881 112.08 52.561 121.11 58.781 126.9 L 68.821 136.24 L 68.821 157.19 Z M 72.321 132.58 C 72.291 132.58 72.261 132.59 72.241 132.59 L 62.191 123.24 C 57.591 118.95 56.341 112.28 59.081 106.62 L 63.131 98.26 C 65.371 99.5 67.891 100.18 70.501 100.18 L 72.321 100.18 C 72.331 100.18 72.331 100.18 72.341 100.18 L 74.171 100.18 C 76.801 100.18 79.351 99.49 81.611 98.22 L 85.681 106.62 C 88.421 112.27 87.171 118.95 82.571 123.23 L 72.511 132.6 C 72.441 132.6 72.381 132.58 72.321 132.58 Z M 75.821 136.35 L 85.971 126.89 C 92.191 121.1 93.881 112.08 90.181 104.44 L 85.721 95.24 C 86.561 94.74 87.481 94.36 88.451 94.18 L 90.361 93.82 L 94.991 102.94 C 97.231 107.34 98.411 112.28 98.411 117.23 C 98.411 121.35 97.611 125.38 96.051 129.19 L 85.711 154.44 L 78.791 156.08 C 77.741 156.33 76.741 156.71 75.821 157.19 L 75.821 136.35 Z M 96.801 168.18 L 75.841 168.18 C 76.061 165.63 77.871 163.5 80.411 162.9 L 89.461 160.74 C 91.241 160.32 93.091 160.73 94.531 161.87 C 95.981 163.01 96.801 164.71 96.801 166.55 L 96.801 168.18 Z M 98.931 156.42 C 98.911 156.41 98.891 156.39 98.871 156.38 C 97.271 155.11 95.441 154.27 93.511 153.86 L 102.531 131.85 C 103.191 130.22 103.741 128.57 104.171 126.89 L 112.581 122.4 C 116.121 120.52 120.421 121.32 123.051 124.35 C 125.881 127.62 125.811 132.5 122.881 135.7 L 105.331 154.84 L 100.101 156.08 C 99.701 156.18 99.311 156.29 98.931 156.42 Z M 118.111 168.18 L 103.801 168.18 L 103.801 166.55 C 103.801 165.17 103.571 163.83 103.161 162.55 L 110.761 160.74 C 112.561 160.32 114.401 160.73 115.841 161.87 C 117.281 163.01 118.111 164.71 118.111 166.55 L 118.111 168.18 L 118.111 168.18 Z M 122.281 158.46 C 121.671 157.7 120.971 157 120.181 156.38 C 118.791 155.27 117.211 154.5 115.551 154.05 L 128.041 140.43 C 133.381 134.61 133.501 125.73 128.341 119.77 C 125.071 116 120.381 114.12 115.681 114.41 C 118.271 106.08 123.611 98.73 130.851 93.72 L 135.661 90.39 L 140.261 116.8 C 142.431 129.27 138.421 142.1 129.521 151.12 L 122.281 158.46 Z" fill="#8ba888"/>
  <circle cx="88.891" cy="67.92" r="3.04" fill="#8ba888"/>
  <path d="M 58.831 67.92 C 58.831 69.6 57.461 70.96 55.791 70.96 C 54.111 70.96 52.741 69.6 52.741 67.92 C 52.741 66.25 54.111 64.88 55.791 64.88 C 57.461 64.88 58.831 66.25 58.831 67.92 Z" fill="#8ba888"/>
</svg>